<svg width="200" height="200" viewBox="0 0 200 200" fill="none" xmlns="http://www.w3.org/2000/svg">
<rect width="200" height="200" rx="5" fill="#222222"/>
<path d="M99.9997 100C123.012 100 141.666 81.3452 141.666 58.3333C141.666 35.3214 123.012 16.6666 99.9997 16.6666C76.9878 16.6666 58.333 35.3214 58.333 58.3333C58.333 81.3452 76.9878 100 99.9997 100Z" stroke="white" stroke-width="2"/>
<path d="M141.667 183.333H43.8837C41.5202 183.334 39.1836 182.832 37.0291 181.86C34.8745 180.889 32.9512 179.47 31.3868 177.698C29.8224 175.927 28.6527 173.842 27.9554 171.584C27.258 169.326 27.0489 166.945 27.342 164.6L30.592 138.567C31.3478 132.518 34.2871 126.955 38.8573 122.922C43.4274 118.889 49.3135 116.664 55.4087 116.667H58.3337" stroke="white" stroke-width="2" stroke-linecap="round" stroke-linejoin="round"/>
<path d="M158.333 108.333V158.333" stroke="white" stroke-width="2" stroke-linecap="round" stroke-linejoin="round"/>
<path d="M133.333 133.333H183.333" stroke="white" stroke-width="2" stroke-linecap="round" stroke-linejoin="round"/>
</svg>
