<svg width="20" height="20" viewBox="0 0 20 20" fill="none" xmlns="http://www.w3.org/2000/svg">
<path d="M3.55518 13.3833C4.26021 14.8088 5.40367 15.9706 6.81768 16.6983C8.22154 17.4191 9.82216 17.6626 11.3768 17.3917C12.9363 17.1174 14.3651 16.3456 15.4493 15.1917C16.5436 14.0268 17.2403 12.545 17.4393 10.9592C17.6414 9.36978 17.337 7.75715 16.5693 6.35083C15.8089 4.95543 14.6206 3.84103 13.1793 3.17166C11.7474 2.50847 10.1382 2.33058 8.59601 2.665C7.05434 2.99916 5.79018 3.75916 4.74601 4.96083C4.61934 5.09416 4.13268 5.6325 3.72934 6.445" stroke="white" stroke-width="2" stroke-linecap="round" stroke-linejoin="round"/>
<path d="M7.4425 6.51084L3.2425 7.26667L2.5 2.99167" stroke="white" stroke-width="2" stroke-linecap="round" stroke-linejoin="round"/>
</svg>
