<svg width="16" height="16" viewBox="0 0 16 16" fill="none" xmlns="http://www.w3.org/2000/svg">
<path d="M2.66683 2.66667H7.3335V1.33333H2.66683C2.31321 1.33333 1.97407 1.47381 1.72402 1.72386C1.47397 1.9739 1.3335 2.31304 1.3335 2.66667V7.33333H2.66683V2.66667ZM6.66683 8.66667L4.00016 12H12.0002L10.0002 9.33333L8.64683 11.14L6.66683 8.66667ZM11.3335 5.66667C11.3335 5.40145 11.2281 5.14709 11.0406 4.95956C10.8531 4.77202 10.5987 4.66667 10.3335 4.66667C10.0683 4.66667 9.81393 4.77202 9.62639 4.95956C9.43885 5.14709 9.3335 5.40145 9.3335 5.66667C9.3335 5.93188 9.43885 6.18624 9.62639 6.37377C9.81393 6.56131 10.0683 6.66667 10.3335 6.66667C10.5987 6.66667 10.8531 6.56131 11.0406 6.37377C11.2281 6.18624 11.3335 5.93188 11.3335 5.66667V5.66667ZM13.3335 1.33333H8.66683V2.66667H13.3335V7.33333H14.6668V2.66667C14.6668 2.31304 14.5264 1.9739 14.2763 1.72386C14.0263 1.47381 13.6871 1.33333 13.3335 1.33333ZM13.3335 13.3333H8.66683V14.6667H13.3335C13.6871 14.6667 14.0263 14.5262 14.2763 14.2761C14.5264 14.0261 14.6668 13.687 14.6668 13.3333V8.66667H13.3335V13.3333ZM2.66683 8.66667H1.3335V13.3333C1.3335 13.687 1.47397 14.0261 1.72402 14.2761C1.97407 14.5262 2.31321 14.6667 2.66683 14.6667H7.3335V13.3333H2.66683V8.66667Z" fill="white"/>
</svg>
