<svg width="41" height="40" viewBox="0 0 41 40" fill="none" xmlns="http://www.w3.org/2000/svg">
<path d="M37.1255 31.6667V15C37.1255 14.1159 36.7732 13.2681 36.146 12.643C35.5188 12.0179 34.6681 11.6667 33.7811 11.6667H22.4702C21.849 11.6666 21.24 11.4942 20.7116 11.1686C20.1832 10.843 19.7563 10.3772 19.4786 9.82333L17.9836 6.84333C17.7058 6.28922 17.2786 5.82323 16.7498 5.49763C16.2211 5.17203 15.6118 4.99971 14.9903 5H7.02554C6.13853 5 5.28786 5.35119 4.66066 5.97631C4.03345 6.60143 3.68109 7.44928 3.68109 8.33333V31.6667C3.68109 32.5507 4.03345 33.3986 4.66066 34.0237C5.28786 34.6488 6.13853 35 7.02554 35H33.7811C34.6681 35 35.5188 34.6488 36.146 34.0237C36.7732 33.3986 37.1255 32.5507 37.1255 31.6667Z" stroke="black" stroke-width="2" stroke-linecap="round" stroke-linejoin="round"/>
<g clip-path="url(#clip0)">
<path d="M20.4034 16.6666C20.6251 16.6666 20.8378 16.7544 20.9946 16.9107C21.1514 17.067 21.2395 17.2789 21.2395 17.5V22.5H26.2561C26.4779 22.5 26.6906 22.5878 26.8474 22.744C27.0042 22.9003 27.0923 23.1123 27.0923 23.3333C27.0923 23.5543 27.0042 23.7663 26.8474 23.9225C26.6906 24.0788 26.4779 24.1666 26.2561 24.1666H21.2395V29.1666C21.2395 29.3876 21.1514 29.5996 20.9946 29.7559C20.8378 29.9122 20.6251 30 20.4034 30C20.1816 30 19.9689 29.9122 19.8121 29.7559C19.6553 29.5996 19.5673 29.3876 19.5673 29.1666V24.1666H14.5506C14.3288 24.1666 14.1162 24.0788 13.9594 23.9225C13.8026 23.7663 13.7145 23.5543 13.7145 23.3333C13.7145 23.1123 13.8026 22.9003 13.9594 22.744C14.1162 22.5878 14.3288 22.5 14.5506 22.5H19.5673V17.5C19.5673 17.2789 19.6553 17.067 19.8121 16.9107C19.9689 16.7544 20.1816 16.6666 20.4034 16.6666V16.6666Z" fill="black"/>
</g>
<defs>
<clipPath id="clip0">
<rect width="13.3778" height="13.3333" fill="white" transform="translate(13.7145 16.6666)"/>
</clipPath>
</defs>
</svg>
