<svg width="40" height="40" viewBox="0 0 40 40" fill="none" xmlns="http://www.w3.org/2000/svg">
<path d="M6 12C6 10.4087 6.63214 8.88258 7.75736 7.75736C8.88258 6.63214 10.4087 6 12 6H28C29.5913 6 31.1174 6.63214 32.2426 7.75736C33.3679 8.88258 34 10.4087 34 12V28C34 29.5913 33.3679 31.1174 32.2426 32.2426C31.1174 33.3679 29.5913 34 28 34H21.292C21.9423 33.4261 22.4955 32.7507 22.93 32H28C29.0609 32 30.0783 31.5786 30.8284 30.8284C31.5786 30.0783 32 29.0609 32 28V12C32 10.9391 31.5786 9.92172 30.8284 9.17157C30.0783 8.42143 29.0609 8 28 8H12C10.9391 8 9.92172 8.42143 9.17157 9.17157C8.42143 9.92172 8 10.9391 8 12V17.07C7.24916 17.5051 6.57374 18.0589 6 18.71V12Z" fill="black"/>
<path d="M12 18C10.4087 18 8.88258 18.6321 7.75736 19.7574C6.63214 20.8826 6 22.4087 6 24V28C6 29.5913 6.63214 31.1174 7.75736 32.2426C8.88258 33.3679 10.4087 34 12 34H16C17.5913 34 19.1174 33.3679 20.2426 32.2426C21.3679 31.1174 22 29.5913 22 28V24C22 22.4087 21.3679 20.8826 20.2426 19.7574C19.1174 18.6321 17.5913 18 16 18H12ZM8 24C8 22.9391 8.42143 21.9217 9.17157 21.1716C9.92172 20.4214 10.9391 20 12 20H16C17.0609 20 18.0783 20.4214 18.8284 21.1716C19.5786 21.9217 20 22.9391 20 24V28C20 29.0609 19.5786 30.0783 18.8284 30.8284C18.0783 31.5786 17.0609 32 16 32H12C10.9391 32 9.92172 31.5786 9.17157 30.8284C8.42143 30.0783 8 29.0609 8 28V24Z" fill="black"/>
<path d="M14 22C14.1326 22 14.2598 22.0527 14.3536 22.1464C14.4473 22.2402 14.5 22.3674 14.5 22.5V25.5H17.5C17.6326 25.5 17.7598 25.5527 17.8536 25.6464C17.9473 25.7402 18 25.8674 18 26C18 26.1326 17.9473 26.2598 17.8536 26.3536C17.7598 26.4473 17.6326 26.5 17.5 26.5H14.5V29.5C14.5 29.6326 14.4473 29.7598 14.3536 29.8536C14.2598 29.9473 14.1326 30 14 30C13.8674 30 13.7402 29.9473 13.6464 29.8536C13.5527 29.7598 13.5 29.6326 13.5 29.5V26.5H10.5C10.3674 26.5 10.2402 26.4473 10.1464 26.3536C10.0527 26.2598 10 26.1326 10 26C10 25.8674 10.0527 25.7402 10.1464 25.6464C10.2402 25.5527 10.3674 25.5 10.5 25.5H13.5V22.5C13.5 22.3674 13.5527 22.2402 13.6464 22.1464C13.7402 22.0527 13.8674 22 14 22V22Z" fill="black"/>
</svg>
