<svg width="40" height="40" viewBox="0 0 40 40" fill="none" xmlns="http://www.w3.org/2000/svg">
<g clip-path="url(#clip0)">
<path fill-rule="evenodd" clip-rule="evenodd" d="M12 2.66667C11.6464 2.66667 11.3072 2.80714 11.0572 3.05719C10.8071 3.30724 10.6667 3.64638 10.6667 4C10.6667 4.35362 10.8071 4.69276 11.0572 4.94281C11.3072 5.19286 11.6464 5.33333 12 5.33333H32V34.6667H12C11.6464 34.6667 11.3072 34.8071 11.0572 35.0572C10.8071 35.3072 10.6667 35.6464 10.6667 36C10.6667 36.3536 10.8071 36.6928 11.0572 36.9428C11.3072 37.1929 11.6464 37.3333 12 37.3333H32C32.7072 37.3333 33.3855 37.0524 33.8856 36.5523C34.3857 36.0522 34.6667 35.3739 34.6667 34.6667V5.33333C34.6667 4.62609 34.3857 3.94781 33.8856 3.44772C33.3855 2.94762 32.7072 2.66667 32 2.66667H12ZM17.6107 13.056C17.4867 12.932 17.3395 12.8337 17.1776 12.7666C17.0156 12.6995 16.842 12.665 16.6667 12.665C16.4914 12.665 16.3177 12.6995 16.1558 12.7666C15.9938 12.8337 15.8466 12.932 15.7227 13.056C15.5987 13.18 15.5004 13.3271 15.4333 13.4891C15.3662 13.6511 15.3316 13.8247 15.3316 14C15.3316 14.1753 15.3662 14.3489 15.4333 14.5109C15.5004 14.6729 15.5987 14.82 15.7227 14.944L19.448 18.6667H1.33333C0.979711 18.6667 0.640573 18.8071 0.390524 19.0572C0.140476 19.3072 0 19.6464 0 20C0 20.3536 0.140476 20.6928 0.390524 20.9428C0.640573 21.1929 0.979711 21.3333 1.33333 21.3333H19.448L15.7227 25.056C15.4723 25.3064 15.3316 25.6459 15.3316 26C15.3316 26.3541 15.4723 26.6936 15.7227 26.944C15.973 27.1944 16.3126 27.335 16.6667 27.335C17.0207 27.335 17.3603 27.1944 17.6107 26.944L23.6107 20.944C23.7348 20.8201 23.8333 20.673 23.9006 20.511C23.9678 20.349 24.0024 20.1754 24.0024 20C24.0024 19.8246 23.9678 19.651 23.9006 19.489C23.8333 19.327 23.7348 19.1799 23.6107 19.056L17.6107 13.056Z" fill="black"/>
</g>
<defs>
<clipPath id="clip0">
<rect width="40" height="40" fill="white"/>
</clipPath>
</defs>
</svg>
