<svg width="30" height="30" viewBox="0 0 30 30" fill="none" xmlns="http://www.w3.org/2000/svg">
<path d="M5.3125 5C4.56658 5 3.85121 5.29632 3.32376 5.82376C2.79632 6.35121 2.5 7.06658 2.5 7.8125V22.1875C2.5 22.5568 2.57275 22.9226 2.71409 23.2638C2.85543 23.605 3.0626 23.9151 3.32376 24.1762C3.58493 24.4374 3.89497 24.6446 4.2362 24.7859C4.57743 24.9273 4.94316 25 5.3125 25H24.6875C25.0568 25 25.4226 24.9273 25.7638 24.7859C26.105 24.6446 26.4151 24.4374 26.6762 24.1762C26.9374 23.9151 27.1446 23.605 27.2859 23.2638C27.4273 22.9226 27.5 22.5568 27.5 22.1875V7.8125C27.5 7.06658 27.2037 6.35121 26.6762 5.82376C26.1488 5.29632 25.4334 5 24.6875 5H5.3125ZM15.6625 9.33125L19.7313 13.4C19.8234 13.4858 19.8972 13.5893 19.9485 13.7043C19.9997 13.8193 20.0273 13.9435 20.0295 14.0693C20.0317 14.1952 20.0086 14.3203 19.9614 14.437C19.9143 14.5537 19.8441 14.6598 19.755 14.7488C19.666 14.8378 19.56 14.908 19.4432 14.9552C19.3265 15.0023 19.2015 15.0255 19.0756 15.0232C18.9497 15.021 18.8256 14.9935 18.7106 14.9422C18.5956 14.891 18.4921 14.8171 18.4062 14.725L15.9375 12.2575V20.3162C15.9375 20.5649 15.8387 20.8033 15.6629 20.9792C15.4871 21.155 15.2486 21.2537 15 21.2537C14.7514 21.2537 14.5129 21.155 14.3371 20.9792C14.1613 20.8033 14.0625 20.5649 14.0625 20.3162V12.26L11.6 14.725C11.5142 14.8171 11.4107 14.891 11.2957 14.9422C11.1807 14.9935 11.0565 15.021 10.9307 15.0232C10.8048 15.0255 10.6797 15.0023 10.563 14.9552C10.4463 14.908 10.3402 14.8378 10.2512 14.7488C10.1622 14.6598 10.092 14.5537 10.0448 14.437C9.9977 14.3203 9.97454 14.1952 9.97676 14.0693C9.97898 13.9435 10.0065 13.8193 10.0578 13.7043C10.109 13.5893 10.1829 13.4858 10.275 13.4L14.3375 9.3325C14.5133 9.15694 14.7516 9.05832 15 9.05832C15.2484 9.05832 15.4867 9.15694 15.6625 9.3325V9.33125Z" fill="white"/>
</svg>
