<svg width="48" height="48" viewBox="0 0 48 48" fill="none" xmlns="http://www.w3.org/2000/svg">
<rect width="48" height="48" fill="#2C2C2C"/>
<path fill-rule="evenodd" clip-rule="evenodd" d="M10 24C10 16.268 16.268 10 24 10C31.732 10 38 16.268 38 24C38 27.145 36.963 30.047 35.213 32.384L37.414 34.586C37.605 34.7705 37.7574 34.9912 37.8622 35.2352C37.967 35.4792 38.0222 35.7416 38.0245 36.0072C38.0268 36.2728 37.9762 36.5361 37.8756 36.7819C37.7751 37.0277 37.6266 37.251 37.4388 37.4388C37.251 37.6266 37.0277 37.7751 36.7819 37.8756C36.5361 37.9762 36.2728 38.0268 36.0072 38.0245C35.7416 38.0222 35.4792 37.967 35.2352 37.8622C34.9912 37.7574 34.7705 37.605 34.586 37.414L32.384 35.213C29.9655 37.0266 27.023 38.0048 24 38C16.268 38 10 31.732 10 24ZM32.343 29.515L29.414 26.585C29.2282 26.3993 29.0076 26.252 28.7649 26.1516C28.5221 26.0512 28.262 25.9995 27.9993 25.9996C27.7366 25.9997 27.4765 26.0515 27.2338 26.1521C26.9912 26.2528 26.7707 26.4002 26.585 26.586C26.3993 26.7718 26.252 26.9924 26.1516 27.2351C26.0512 27.4779 25.9995 27.738 25.9996 28.0007C25.9998 28.5312 26.2107 29.04 26.586 29.415L29.515 32.343C27.8801 33.4266 25.9614 34.0031 24 34C18.477 34 14 29.523 14 24C14 18.477 18.477 14 24 14C29.523 14 34 18.477 34 24C34 26.038 33.39 27.934 32.343 29.515Z" fill="url(#paint0_linear)"/>
<defs>
<linearGradient id="paint0_linear" x1="24.0123" y1="10" x2="24.0123" y2="38.0246" gradientUnits="userSpaceOnUse">
<stop stop-color="#F14E43"/>
<stop offset="1" stop-color="#D62051"/>
</linearGradient>
</defs>
</svg>
