<svg width="50" height="50" viewBox="0 0 50 50" fill="none" xmlns="http://www.w3.org/2000/svg">
<path fill-rule="evenodd" clip-rule="evenodd" d="M33.3334 18.75C33.3334 20.9601 32.4554 23.0798 30.8926 24.6426C29.3298 26.2054 27.2102 27.0833 25 27.0833C22.7899 27.0833 20.6703 26.2054 19.1075 24.6426C17.5447 23.0798 16.6667 20.9601 16.6667 18.75C16.6667 16.5399 17.5447 14.4203 19.1075 12.8574C20.6703 11.2946 22.7899 10.4167 25 10.4167C27.2102 10.4167 29.3298 11.2946 30.8926 12.8574C32.4554 14.4203 33.3334 16.5399 33.3334 18.75ZM29.1667 18.75C29.1667 19.8551 28.7277 20.9149 27.9463 21.6963C27.1649 22.4777 26.1051 22.9167 25 22.9167C23.895 22.9167 22.8351 22.4777 22.0537 21.6963C21.2723 20.9149 20.8334 19.8551 20.8334 18.75C20.8334 17.6449 21.2723 16.5851 22.0537 15.8037C22.8351 15.0223 23.895 14.5833 25 14.5833C26.1051 14.5833 27.1649 15.0223 27.9463 15.8037C28.7277 16.5851 29.1667 17.6449 29.1667 18.75Z" fill="white"/>
<path fill-rule="evenodd" clip-rule="evenodd" d="M25 2.08334C12.3438 2.08334 2.08334 12.3438 2.08334 25C2.08334 37.6562 12.3438 47.9167 25 47.9167C37.6563 47.9167 47.9167 37.6562 47.9167 25C47.9167 12.3438 37.6563 2.08334 25 2.08334ZM6.25001 25C6.25001 29.3542 7.73543 33.3625 10.225 36.5458C11.9734 34.2498 14.229 32.3891 16.8155 31.109C19.402 29.8289 22.2495 29.1642 25.1354 29.1667C27.984 29.164 30.7957 29.8115 33.3561 31.06C35.9166 32.3084 38.1583 34.1248 39.9104 36.3708C41.7155 34.0033 42.9309 31.24 43.456 28.3096C43.9812 25.3791 43.8009 22.3657 42.9302 19.5187C42.0595 16.6717 40.5234 14.073 38.4489 11.9376C36.3745 9.80214 33.8214 8.19138 31.0008 7.23856C28.1802 6.28575 25.1733 6.01828 22.2289 6.45828C19.2844 6.89828 16.4871 8.03311 14.0683 9.76886C11.6495 11.5046 9.67878 13.7914 8.31924 16.44C6.95969 19.0886 6.25039 22.0229 6.25001 25ZM25 43.75C20.6957 43.7565 16.5214 42.2757 13.1833 39.5583C14.5269 37.6349 16.3153 36.0644 18.3962 34.9806C20.4772 33.8968 22.7892 33.3317 25.1354 33.3333C27.4524 33.3315 29.7364 33.8824 31.7978 34.9405C33.8591 35.9985 35.6383 37.533 36.9875 39.4167C33.6235 42.2223 29.3804 43.7561 25 43.75Z" fill="white"/>
</svg>
