<svg width="24" height="24" viewBox="0 0 24 24" fill="none" xmlns="http://www.w3.org/2000/svg">
<path d="M13.073 12.0001L16.313 8.76008C16.4222 8.63255 16.4793 8.4685 16.4728 8.30071C16.4663 8.13293 16.3967 7.97377 16.278 7.85504C16.1593 7.73631 16.0001 7.66676 15.8323 7.66028C15.6645 7.6538 15.5005 7.71087 15.373 7.82008L12.133 11.0267L8.87296 7.76675C8.74543 7.65753 8.58138 7.60046 8.4136 7.60694C8.24581 7.61342 8.08665 7.68298 7.96792 7.80171C7.84919 7.92044 7.77964 8.0796 7.77316 8.24738C7.76668 8.41517 7.82375 8.57922 7.93296 8.70675L11.1863 12.0001L7.99963 15.1467C7.92984 15.2065 7.87316 15.2801 7.83315 15.3628C7.79313 15.4455 7.77064 15.5356 7.7671 15.6274C7.76355 15.7192 7.77902 15.8107 7.81254 15.8963C7.84606 15.9818 7.89689 16.0595 7.96186 16.1245C8.02683 16.1895 8.10453 16.2403 8.19008 16.2738C8.27563 16.3074 8.36719 16.3228 8.459 16.3193C8.55081 16.3157 8.6409 16.2932 8.72361 16.2532C8.80632 16.2132 8.87987 16.1565 8.93963 16.0867L12.1196 12.9067L15.2796 16.0667C15.4072 16.176 15.5712 16.233 15.739 16.2266C15.9068 16.2201 16.0659 16.1505 16.1847 16.0318C16.3034 15.9131 16.373 15.7539 16.3794 15.5861C16.3859 15.4183 16.3288 15.2543 16.2196 15.1267L13.073 12.0001Z" fill="#858585"/>
<path d="M11.9997 22.6666C9.89001 22.6666 7.82772 22.041 6.0736 20.8689C4.31947 19.6969 2.9523 18.031 2.14496 16.0819C1.33763 14.1328 1.12639 11.9881 1.53797 9.91896C1.94955 7.84983 2.96545 5.94921 4.45721 4.45745C5.94897 2.96569 7.84959 1.94979 9.91872 1.53821C11.9878 1.12664 14.1326 1.33787 16.0816 2.14521C18.0307 2.95254 19.6966 4.31972 20.8687 6.07384C22.0408 7.82796 22.6663 9.89026 22.6663 11.9999C22.6663 14.8289 21.5425 17.542 19.5422 19.5424C17.5418 21.5428 14.8287 22.6666 11.9997 22.6666V22.6666ZM11.9997 2.66659C10.1537 2.66659 8.34922 3.21398 6.81436 4.23954C5.2795 5.2651 4.08322 6.72277 3.3768 8.42821C2.67039 10.1337 2.48555 12.0103 2.84568 13.8208C3.20581 15.6313 4.09473 17.2943 5.40002 18.5996C6.70531 19.9049 8.36835 20.7938 10.1788 21.1539C11.9893 21.514 13.8659 21.3292 15.5714 20.6228C17.2768 19.9164 18.7345 18.7201 19.7601 17.1852C20.7856 15.6504 21.333 13.8459 21.333 11.9999C21.333 9.52457 20.3497 7.1506 18.5993 5.40026C16.849 3.64992 14.475 2.66659 11.9997 2.66659V2.66659Z" fill="#858585"/>
</svg>
