<svg width="30" height="30" viewBox="0 0 30 30" fill="none" xmlns="http://www.w3.org/2000/svg">
<path d="M29.4434 29.4428C29.0723 29.8143 28.6279 30 28.1104 30C27.5928 30 27.1484 29.8143 26.7773 29.4428L20.9766 23.6364C18.6328 25.3763 16.0156 26.2463 13.125 26.2463C11.3477 26.2463 9.64844 25.8993 8.02734 25.2053C6.40625 24.5112 5.00977 23.5777 3.83789 22.4047C2.66602 21.2317 1.7334 19.8387 1.04004 18.2258C0.34668 16.6129 0 14.912 0 13.1232C0 11.3343 0.34668 9.62854 1.04004 8.00587C1.7334 6.38319 2.66602 4.99022 3.83789 3.82698C5.00977 2.66373 6.40625 1.73509 8.02734 1.04106C9.64844 0.347019 11.3477 0 13.125 0C14.9023 0 16.6016 0.347019 18.2227 1.04106C19.8438 1.73509 21.2402 2.66373 22.4121 3.82698C23.584 4.99022 24.5166 6.38319 25.21 8.00587C25.9033 9.62854 26.25 11.3294 26.25 13.1085C26.25 16.0215 25.3809 18.6413 23.6426 20.9677L29.4434 26.7742C29.8145 27.1457 30 27.5904 30 28.1085C30 28.6266 29.8145 29.0714 29.4434 29.4428ZM13.125 3.75367C11.4258 3.75367 9.8584 4.16911 8.42285 5C6.9873 5.83089 5.84961 6.9697 5.00977 8.41642C4.16992 9.86315 3.75 11.4321 3.75 13.1232C3.75 14.8143 4.16992 16.3832 5.00977 17.8299C5.84961 19.2766 6.9873 20.4154 8.42285 21.2463C9.8584 22.0772 11.4258 22.4927 13.125 22.4927C14.8242 22.4927 16.3916 22.0772 17.8271 21.2463C19.2627 20.4154 20.4004 19.2766 21.2402 17.8299C22.0801 16.3832 22.5 14.8143 22.5 13.1232C22.5 11.4321 22.0801 9.86315 21.2402 8.41642C20.4004 6.9697 19.2627 5.83089 17.8271 5C16.3916 4.16911 14.8242 3.75367 13.125 3.75367Z" fill="#858585"/>
</svg>
