<svg width="40" height="40" viewBox="0 0 40 40" fill="none" xmlns="http://www.w3.org/2000/svg">
<path d="M6.66667 30H13.3333C14.25 30 15 29.25 15 28.3333C15 27.4167 14.25 26.6667 13.3333 26.6667H6.66667C5.75 26.6667 5 27.4167 5 28.3333C5 29.25 5.75 30 6.66667 30ZM5 11.6667C5 12.5833 5.75 13.3333 6.66667 13.3333H33.3333C34.25 13.3333 35 12.5833 35 11.6667C35 10.75 34.25 10 33.3333 10H6.66667C5.75 10 5 10.75 5 11.6667ZM6.66667 21.6667H23.3333C24.25 21.6667 25 20.9167 25 20C25 19.0833 24.25 18.3333 23.3333 18.3333H6.66667C5.75 18.3333 5 19.0833 5 20C5 20.9167 5.75 21.6667 6.66667 21.6667Z" fill="white"/>
</svg>
