<svg width="50" height="50" viewBox="0 0 50 50" fill="none" xmlns="http://www.w3.org/2000/svg">
<path d="M27.0833 9.79792C27.0833 5.92917 22.2708 4.15 19.7521 7.0875L12.1667 15.9375C11.9711 16.1662 11.7282 16.3498 11.4549 16.4756C11.1816 16.6015 10.8842 16.6667 10.5833 16.6667H10.4167C8.75905 16.6667 7.16934 17.3251 5.99724 18.4972C4.82514 19.6694 4.16666 21.2591 4.16666 22.9167V27.0833C4.16666 28.7409 4.82514 30.3307 5.99724 31.5028C7.16934 32.6749 8.75905 33.3333 10.4167 33.3333H10.5833C10.8842 33.3333 11.1816 33.3985 11.4549 33.5244C11.7282 33.6502 11.9711 33.8338 12.1667 34.0625L19.7521 42.9125C22.2708 45.85 27.0833 44.0708 27.0833 40.2021V9.79792ZM15.3292 18.6521L22.9167 9.79584V40.2L15.3292 31.3458C14.742 30.6619 14.0139 30.113 13.1947 29.7368C12.3756 29.3607 11.4847 29.1662 10.5833 29.1667H10.4167C9.86412 29.1667 9.33422 28.9472 8.94352 28.5565C8.55282 28.1658 8.33332 27.6359 8.33332 27.0833V22.9167C8.33332 22.3641 8.55282 21.8342 8.94352 21.4435C9.33422 21.0528 9.86412 20.8333 10.4167 20.8333H10.5833C11.4851 20.8333 12.3761 20.6382 13.1953 20.2613C14.0145 19.8844 14.7424 19.3347 15.3292 18.65V18.6521ZM38.825 8.90625C38.6278 8.71194 38.3939 8.55887 38.1369 8.45599C37.8799 8.3531 37.6049 8.30248 37.3281 8.30706C37.0514 8.31165 36.7782 8.37135 36.5248 8.48268C36.2713 8.59402 36.0426 8.75475 35.852 8.95549C35.6613 9.15623 35.5126 9.39295 35.4145 9.65181C35.3164 9.91068 35.2709 10.1865 35.2806 10.4632C35.2903 10.7398 35.3551 11.0118 35.4711 11.2631C35.5871 11.5145 35.752 11.7402 35.9562 11.9271C43.5708 19.1604 43.5708 30.8396 35.9562 38.0729C35.5675 38.4561 35.3446 38.9765 35.3355 39.5223C35.3265 40.0681 35.532 40.5956 35.9079 40.9914C36.2838 41.3872 36.8 41.6197 37.3455 41.6388C37.891 41.658 38.4223 41.4622 38.825 41.0938C48.1687 32.2188 48.1687 17.7813 38.825 8.90625ZM32.6854 14.7396C32.2848 14.3589 31.7494 14.1529 31.197 14.167C30.6445 14.181 30.1203 14.414 29.7396 14.8146C29.3589 15.2152 29.1529 15.7506 29.167 16.303C29.181 16.8555 29.414 17.3797 29.8146 17.7604C34.0375 21.7708 34.0375 28.2292 29.8146 32.2396C29.414 32.6203 29.181 33.1445 29.167 33.697C29.1529 34.2494 29.3589 34.7848 29.7396 35.1854C30.1203 35.586 30.6445 35.819 31.197 35.833C31.7494 35.8471 32.2848 35.6411 32.6854 35.2604C38.6375 29.6063 38.6375 20.3938 32.6854 14.7396Z" fill="white"/>
</svg>
